# File created by Blade
# Date/Time:  Mon Sep 22 17:38:34 2014
# Frame Rate: 120.000 fps
#------------------------------------------------------
:FULLY-SPECIFIED
:DEGREES
2106
root 0.117516 37.171834 5.233040 -9.058479 18.781161 9.831568
RightUpLeg 18.588502 -12.025246 -2.584787
RightLeg -5.314793 -0.000000 0.000000
RightFoot -13.330402 -23.597387 8.618248
RightToeBase 8.283989 -0.000000 -0.000000
LeftUpLeg -20.226921 32.889632 25.850979
LeftLeg 88.711615 -0.000000 -0.000000
LeftFoot 16.568453 30.837997 -23.429958
LeftToeBase -2.703239 -0.000000 0.000000
Spine 23.242048 -14.062342 -4.578828
RightShoulder 11.456537 -10.150462 -21.470929
RightArm 61.932118 -17.761269 53.156278
RightForeArm 6.302669 0.000000 83.024907
RightHand 5.229300 -0.000000 -23.383348
RightHandThumb1 -24.326973 -0.000000 -32.862282
LeftShoulder -7.780439 28.421644 2.214587
LeftArm 78.683154 1.546084 -63.431347
LeftForeArm 18.221619 -0.000000 86.525822
LeftHand -22.397389 -0.000000 7.450713
LeftHandThumb1 -26.253704 0.000000 33.147579
Head 15.047159 11.686446 -8.500778
2107
root 0.116769 37.175056 5.237228 -8.951955 18.622854 9.892963
RightUpLeg 18.485740 -11.979945 -2.621267
RightLeg -5.322279 -0.000000 0.000000
RightFoot -13.302704 -23.534544 8.577985
RightToeBase 8.323357 -0.000000 -0.000000
LeftUpLeg -20.140185 32.734730 25.753182
LeftLeg 88.628706 -0.000000 -0.000000
LeftFoot 16.590654 30.763835 -23.419518
LeftToeBase -2.658294 -0.000000 0.000000
Spine 23.163857 -13.934692 -4.568909
RightShoulder 11.486769 -10.092822 -21.459871
RightArm 61.923421 -17.782676 53.098453
RightForeArm 6.208985 0.000000 83.015694
RightHand 5.204532 -0.000000 -23.468544
RightHandThumb1 -24.326973 -0.000000 -32.862282
LeftShoulder -7.820827 28.446693 2.189989
LeftArm 78.692285 1.528387 -63.372405
LeftForeArm 18.241979 -0.000000 86.533151
LeftHand -22.313521 -0.000000 7.599903
LeftHandThumb1 -26.253704 0.000000 33.147579
Head 15.075785 11.675790 -8.474824
2108
root 0.116524 37.179034 5.242195 -8.865612 18.478399 9.947725
RightUpLeg 18.395835 -11.931713 -2.651219
RightLeg -5.316935 -0.000000 0.000000
RightFoot -13.269943 -23.491337 8.523237
RightToeBase 8.382189 -0.000000 -0.000000
LeftUpLeg -20.040405 32.597165 25.668072
LeftLeg 88.508993 -0.000000 -0.000000
LeftFoot 16.648038 30.759143 -23.392737
LeftToeBase -2.623170 -0.000000 0.000000
Spine 23.113426 -13.806081 -4.551387
RightShoulder 11.481492 -10.069294 -21.467496
RightArm 61.951619 -17.809787 53.020007
RightForeArm 6.086681 -0.000000 83.009738
RightHand 5.203747 0.000000 -23.619012
RightHandThumb1 -24.326973 -0.000000 -32.862282
LeftShoulder -7.862786 28.450141 2.165592
LeftArm 78.717179 1.536276 -63.253280
LeftForeArm 18.478513 -0.000000 86.555888
LeftHand -22.493036 -0.000000 7.869425
LeftHandThumb1 -26.253704 0.000000 33.147579
Head 15.099976 11.676316 -8.434494
2109
root 0.117051 37.183712 5.248066 -8.796695 18.354647 10.001363
RightUpLeg 18.318336 -11.909415 -2.693767
RightLeg -5.288799 -0.000000 0.000000
RightFoot -13.241334 -23.433333 8.485877
RightToeBase 8.367394 -0.000000 -0.000000
LeftUpLeg -19.926063 32.462361 25.578101
LeftLeg 88.360545 -0.000000 -0.000000
LeftFoot 16.648624 30.772170 -23.398084
LeftToeBase -2.751777 -0.000000 0.000000
Spine 23.080161 -13.675272 -4.530846
RightShoulder 11.458942 -10.068386 -21.462381
RightArm 61.978707 -17.816596 52.952697
RightForeArm 5.966150 -0.000000 82.996288
RightHand 5.231263 -0.000000 -23.741517
RightHandThumb1 -24.326973 -0.000000 -32.862282
LeftShoulder -7.872234 28.448952 2.178026
LeftArm 78.721711 1.548677 -63.191143
LeftForeArm 18.656636 -0.000000 86.587335
LeftHand -22.549721 -0.000000 7.989524
LeftHandThumb1 -26.253704 0.000000 33.147579
Head 15.127395 11.661559 -8.396018
2110
root 0.117967 37.188939 5.255741 -8.750654 18.230620 10.057893
RightUpLeg 18.265308 -11.857540 -2.738060
RightLeg -5.258389 -0.000000 0.000000
RightFoot -13.222016 -23.379933 8.448527
RightToeBase 8.352188 -0.000000 -0.000000
LeftUpLeg -19.769871 32.339484 25.509830
LeftLeg 88.195404 -0.000000 -0.000000
LeftFoot 16.559152 30.763380 -23.442395
LeftToeBase -2.703975 -0.000000 0.000000
Spine 23.076184 -13.524890 -4.514564
RightShoulder 11.444030 -10.091310 -21.455103
RightArm 61.990598 -17.801089 52.897143
RightForeArm 5.847882 -0.000000 83.025631
RightHand 5.224598 -0.000000 -23.944865
RightHandThumb1 -24.326973 -0.000000 -32.862282
LeftShoulder -7.868255 28.450552 2.222140
LeftArm 78.728357 1.560945 -63.113891
LeftForeArm 18.774495 -0.000000 86.625419
LeftHand -22.616727 -0.000000 8.194641
LeftHandThumb1 -26.253704 0.000000 33.147579
Head 15.142692 11.604618 -8.361851
2111
root 0.118014 37.194050 5.264333 -8.714676 18.122355 10.101232
RightUpLeg 18.213088 -11.804298 -2.764006
RightLeg -5.210490 -0.000000 0.000000
RightFoot -13.200594 -23.361659 8.407008
RightToeBase 8.337713 -0.000000 -0.000000
LeftUpLeg -19.614770 32.227450 25.458775
LeftLeg 88.012052 -0.000000 -0.000000
LeftFoot 16.551624 30.759176 -23.384264
LeftToeBase -2.671745 -0.000000 0.000000
Spine 23.072737 -13.376965 -4.481439
RightShoulder 11.424636 -10.087091 -21.439659
RightArm 61.949079 -17.805861 52.868588
RightForeArm 5.650275 -0.000000 83.066403
RightHand 5.200982 -0.000000 -24.135857
RightHandThumb1 -24.326973 -0.000000 -32.862282
LeftShoulder -7.841740 28.440512 2.262930
LeftArm 78.727785 1.575282 -63.070438
LeftForeArm 18.840495 -0.000000 86.661610
LeftHand -22.625807 -0.000000 8.215890
LeftHandThumb1 -26.253704 0.000000 33.147579
Head 15.190994 11.528807 -8.331905
